<?xml version="1.0" encoding="UTF-8" standalone="no"?>
<!-- Created with Inkscape (http://www.inkscape.org/) -->

<svg
   width="575mm"
   height="250mm"
   viewBox="0 0 575 250"
   version="1.1"
   id="svg1"
   xml:space="preserve"
   inkscape:export-filename="FullScaleLogo.png"
   inkscape:export-xdpi="25.4"
   inkscape:export-ydpi="25.4"
   inkscape:version="1.4.2 (f4327f4, 2025-05-13)"
   sodipodi:docname="FullLogo.svg"
   xmlns:inkscape="http://www.inkscape.org/namespaces/inkscape"
   xmlns:sodipodi="http://sodipodi.sourceforge.net/DTD/sodipodi-0.dtd"
   xmlns="http://www.w3.org/2000/svg"
   xmlns:svg="http://www.w3.org/2000/svg"><sodipodi:namedview
     id="namedview1"
     pagecolor="#505050"
     bordercolor="#eeeeee"
     borderopacity="1"
     inkscape:showpageshadow="0"
     inkscape:pageopacity="0"
     inkscape:pagecheckerboard="0"
     inkscape:deskcolor="#505050"
     inkscape:document-units="mm"
     inkscape:zoom="0.57237304"
     inkscape:cx="1161.8297"
     inkscape:cy="453.37565"
     inkscape:window-width="2560"
     inkscape:window-height="1529"
     inkscape:window-x="-8"
     inkscape:window-y="-8"
     inkscape:window-maximized="1"
     inkscape:current-layer="layer1" /><defs
     id="defs1"><rect
       x="929.46375"
       y="78.620056"
       width="1202.0133"
       height="1006.3367"
       id="rect1" /><rect
       x="955.67041"
       y="85.608505"
       width="1406.4254"
       height="805.41876"
       id="rect2" /><style
       id="style1">
      .cls-1 {
        fill: none;
      }
    </style></defs><g
     inkscape:label="Layer 1"
     inkscape:groupmode="layer"
     id="layer1"><g
       style="font-weight:bold;font-size:93.2117px;line-height:1;font-family:Lexand;-inkscape-font-specification:'Lexand Bold';letter-spacing:-1.26204px;text-orientation:upright;fill:none;fill-rule:evenodd;stroke:#ffffff;stroke-width:2;stroke-linecap:round;stroke-linejoin:round;paint-order:markers stroke fill;stroke-opacity:1"
       id="g2"
       transform="matrix(8.9715168,0,0,8.9715168,-0.92431637,16.184998)"><path
         d="m 14.748,10.5 7,5 -3,1 -2,3 z"
         id="path1-0"
         style="stroke:#ffffff;stroke-opacity:1" /><path
         d="M 21,10 V 8 A 2,2 0 0 0 20,6.27 l -7,-4 a 2,2 0 0 0 -2,0 l -7,4 A 2,2 0 0 0 3,8 v 8 a 2,2 0 0 0 1,1.73 l 7,4 a 2,2 0 0 0 2.305,-0.23"
         id="path2-9"
         style="stroke:#ffffff;stroke-opacity:1" /></g><path
       d="m 1014.6906,284.41785 q -24.49211,0 -41.6861,-7.42186 -17.19399,-7.54556 -26.22392,-21.77081 -9.02994,-14.34893 -9.02994,-34.63537 h 42.42833 q 0.24739,8.78254 4.57681,15.09113 4.32943,6.30858 11.99869,9.64842 7.79293,3.33984 18.30723,3.33984 9.5248,0 16.4518,-2.47395 7.0508,-2.47396 10.8854,-6.92708 3.9584,-4.57681 3.9584,-10.638 0,-5.19531 -3.3399,-9.02994 -3.2161,-3.95833 -10.2669,-6.80337 -6.9271,-2.96875 -18.0599,-5.31901 l -18.92572,-3.83463 q -26.9661,-5.5664 -40.69656,-18.67836 -13.73045,-13.23566 -13.73045,-33.39839 0,-17.19399 9.02994,-30.05855 9.15363,-12.86457 25.48174,-20.03904 16.3281,-7.298167 37.97525,-7.298167 22.1419,0 38.0989,7.298167 15.957,7.17447 24.7395,20.65752 8.9063,13.48306 9.5247,32.40882 h -41.1913 q -0.8659,-11.5039 -9.1536,-18.05988 -8.1641,-6.55598 -21.3998,-6.55598 -8.2877,0 -14.84368,2.47396 -6.43229,2.47395 -10.14322,6.92707 -3.58724,4.32942 -3.58724,10.14322 0,5.07161 3.09245,8.78254 3.09244,3.58723 9.64842,6.30858 6.55597,2.72135 17.07027,4.82422 l 16.2044,3.21614 q 15.3385,3.09244 26.3476,7.79296 11.1328,4.57681 18.1836,11.0091 7.1745,6.43228 10.5143,14.96742 3.4636,8.41145 3.4636,19.04946 0,18.55466 -9.03,31.79032 -9.0299,13.11196 -25.9765,20.16273 -16.9466,7.05077 -40.6966,7.05077 z m 178.1248,-133.59357 v 32.9036 h -91.7837 v -32.9036 z m -69.5181,-35.62495 h 42.6757 v 122.33708 q 0,6.30858 2.4739,8.65884 2.474,2.35026 9.6485,2.35026 3.2161,0 7.9166,0 4.7005,0 6.8034,0 v 32.9036 q -3.3398,0 -10.1432,0 -6.8034,0 -13.9779,0 -23.5025,0 -34.5116,-8.78254 -10.8854,-8.90624 -10.8854,-27.95569 z m 131.4907,169.09483 q -14.1016,0 -24.2448,-6.06119 -10.0195,-6.18489 -15.3385,-17.68878 -5.319,-11.50389 -5.319,-27.5846 v -82.13531 h 42.552 v 73.22907 q 0,11.50389 5.5664,17.68878 5.6901,6.18489 15.7096,6.18489 6.6797,0 11.6276,-2.84505 5.0716,-2.84505 7.793,-8.53515 2.7213,-5.81379 2.7213,-14.72003 v -71.00251 h 42.5521 v 130.62483 h -42.0573 v -35.00647 h 6.3086 q -6.0612,17.19399 -17.5651,27.5846 -11.3802,10.26692 -30.3059,10.26692 z m 158.4568,0 q -17.0703,0 -29.8112,-8.41145 -12.7408,-8.53515 -19.7916,-23.87367 -6.9271,-15.46222 -6.9271,-36.11974 0,-20.03904 7.1745,-35.37756 7.1744,-15.33852 19.7916,-23.87366 12.6172,-8.65885 29.1927,-8.65885 8.5351,0 15.4622,2.22656 6.9271,2.22656 12.3698,6.80338 5.5664,4.45312 9.6484,11.38019 h 0.1237 V 97.139459 h 42.6757 V 281.44911 h -42.1809 v -20.16274 h -0.1237 q -3.3398,7.66926 -8.9062,12.86457 -5.5664,5.07161 -12.8646,7.54556 -7.2982,2.59766 -15.8333,2.59766 z m 11.875,-34.01689 q 8.164,0 14.2252,-4.20572 6.0612,-4.32942 9.401,-11.99868 3.4636,-7.66926 3.4636,-18.18357 0,-10.39061 -3.4636,-17.93617 -3.3398,-7.66926 -9.401,-11.87499 -6.0612,-4.20572 -14.2252,-4.20572 -7.6693,0 -13.4831,4.08202 -5.6901,4.08203 -8.7825,11.75129 -2.9688,7.54556 -2.9688,18.18357 0,10.7617 2.9688,18.43096 3.0924,7.66926 8.7825,11.87499 5.8138,4.08202 13.4831,4.08202 z m 91.7837,31.17184 V 150.82428 h 42.552 v 130.62483 z m 21.1523,-143.3657 q -10.2669,0 -16.8229,-6.06119 -6.556,-6.06118 -6.556,-15.46221 0,-9.40103 6.556,-15.33852 6.556,-6.061195 16.8229,-6.061195 10.2669,0 16.8229,6.061195 6.6797,5.93749 6.6797,15.33852 0,9.40103 -6.6797,15.46221 -6.556,6.06119 -16.8229,6.06119 z m 108.4829,146.33444 q -20.4101,0 -35.996,-8.41144 -15.4622,-8.41145 -24.1211,-23.74997 -8.6588,-15.33852 -8.6588,-36.11974 0,-20.65753 8.6588,-35.99605 8.6589,-15.33852 24.1211,-23.74997 15.5859,-8.53514 35.996,-8.53514 20.5339,0 35.8724,8.53514 15.4622,8.41145 24.121,23.74997 8.6589,15.33852 8.6589,35.99605 0,20.78122 -8.6589,36.11974 -8.6588,15.33852 -24.121,23.74997 -15.3385,8.41144 -35.8724,8.41144 z m 0,-33.89318 q 7.4219,0 13.112,-3.95833 5.8138,-4.08202 9.1536,-11.75128 3.3399,-7.66927 3.3399,-18.67836 0,-11.0091 -3.3399,-18.67837 -3.3398,-7.66926 -9.1536,-11.62758 -5.6901,-4.08203 -13.112,-4.08203 -7.4218,0 -13.2356,4.08203 -5.8138,3.95832 -9.1537,11.62758 -3.2161,7.66927 -3.2161,18.67837 0,11.00909 3.2161,18.67836 3.3399,7.66926 9.1537,11.75128 5.8138,3.95833 13.2356,3.95833 z m -622.0759,287.22619 q -25.23438,0 -45.39711,-11.25649 -20.03904,-11.3802 -31.66663,-32.65621 -11.50389,-21.27601 -11.50389,-51.08717 0,-30.05855 11.50389,-51.33457 11.62759,-21.39971 31.66663,-32.6562 20.16273,-11.2565 45.39711,-11.2565 16.8229,0 31.1718,5.07161 14.3489,4.94791 25.2343,14.22524 11.0091,9.15363 17.8125,22.0182 6.9271,12.86457 9.0299,28.82158 h -44.9022 q -1.3607,-7.42187 -4.7005,-13.23566 -3.2162,-5.8138 -8.0404,-9.77213 -4.8242,-4.08202 -11.1328,-6.18488 -6.3086,-2.10287 -13.7305,-2.10287 -14.2252,0 -24.121,6.80338 -9.89583,6.80338 -15.21484,19.42055 -5.1953,12.61717 -5.1953,30.18225 0,17.44138 5.1953,30.05855 5.19531,12.49347 15.09114,19.29685 10.0195,6.80338 24.2447,6.80338 7.4219,0 13.6068,-1.97917 6.3086,-2.10286 11.1328,-6.18488 4.8242,-4.08203 8.0404,-9.77213 3.3398,-5.81379 4.9479,-13.11196 h 44.7785 q -2.1028,15.83331 -9.0299,28.69788 -6.8034,12.86457 -17.8125,22.1419 -11.0091,9.15363 -25.358,14.10154 -14.2252,4.94791 -31.0481,4.94791 z m 164.518,0 q -20.4102,0 -35.9961,-8.41145 -15.4622,-8.41144 -24.121,-23.74996 -8.6589,-15.33853 -8.6589,-36.11975 0,-20.65752 8.6589,-35.99604 8.6588,-15.33852 24.121,-23.74997 15.5859,-8.53515 35.9961,-8.53515 20.5338,0 35.8723,8.53515 15.4622,8.41145 24.1211,23.74997 8.6588,15.33852 8.6588,35.99604 0,20.78122 -8.6588,36.11975 -8.6589,15.33852 -24.1211,23.74996 -15.3385,8.41145 -35.8723,8.41145 z m 0,-33.89318 q 7.4218,0 13.1119,-3.95833 5.8138,-4.08203 9.1537,-11.75129 3.3398,-7.66926 3.3398,-18.67836 0,-11.0091 -3.3398,-18.67836 -3.3399,-7.66926 -9.1537,-11.62759 -5.6901,-4.08202 -13.1119,-4.08202 -7.4219,0 -13.2357,4.08202 -5.8138,3.95833 -9.1536,11.62759 -3.2162,7.66926 -3.2162,18.67836 0,11.0091 3.2162,18.67836 3.3398,7.66926 9.1536,11.75129 5.8138,3.95833 13.2357,3.95833 z m 129.5115,-40.07807 v 71.00251 h -42.552 V 404.15729 h 42.0572 v 35.00646 h -6.3086 q 6.0612,-17.31768 17.5651,-27.58459 11.5039,-10.26692 30.306,-10.26692 14.2252,0 24.2447,6.18489 10.0195,6.06119 15.3386,17.56508 5.319,11.50389 5.319,27.5846 v 82.13531 h -42.5521 v -73.22907 q 0,-11.62759 -5.5664,-17.68878 -5.5664,-6.18489 -15.7096,-6.18489 -6.6797,0 -11.7513,2.84505 -4.9479,2.84505 -7.6692,8.65884 -2.7214,5.6901 -2.7214,14.59634 z m 191.9789,-59.62232 v 32.9036 h -91.7837 v -32.9036 z m -69.5181,-35.62495 h 42.6757 v 122.33707 q 0,6.30859 2.474,8.65885 2.4739,2.35025 9.6484,2.35025 3.2161,0 7.9166,0 4.7005,0 6.8034,0 v 32.90361 q -3.3398,0 -10.1432,0 -6.8034,0 -13.9779,0 -23.5025,0 -34.5116,-8.78255 -10.8854,-8.90623 -10.8854,-27.95569 z m 86.5884,166.24978 V 404.15729 h 41.1913 v 23.00778 h 0.3711 q 3.5873,-12.49347 11.1328,-17.93617 7.6693,-5.5664 20.7813,-5.5664 3.4635,0 6.1848,0.1237 2.8451,0 5.4427,0.1237 v 35.13016 q -2.3502,-0.1237 -7.2981,-0.2474 -4.8242,-0.1237 -9.5248,-0.1237 -7.5455,0 -13.3593,3.46354 -5.8138,3.33984 -9.1536,9.89582 -3.2162,6.55598 -3.2162,15.83331 v 66.92049 z m 162.4398,2.96874 q -20.4101,0 -35.996,-8.41145 -15.4623,-8.41144 -24.1211,-23.74996 -8.6588,-15.33853 -8.6588,-36.11975 0,-20.65752 8.6588,-35.99604 8.6588,-15.33852 24.1211,-23.74997 15.5859,-8.53515 35.996,-8.53515 20.5338,0 35.8724,8.53515 15.4622,8.41145 24.121,23.74997 8.6589,15.33852 8.6589,35.99604 0,20.78122 -8.6589,36.11975 -8.6588,15.33852 -24.121,23.74996 -15.3386,8.41145 -35.8724,8.41145 z m 0,-33.89318 q 7.4219,0 13.112,-3.95833 5.8138,-4.08203 9.1536,-11.75129 3.3398,-7.66926 3.3398,-18.67836 0,-11.0091 -3.3398,-18.67836 -3.3398,-7.66926 -9.1536,-11.62759 -5.6901,-4.08202 -13.112,-4.08202 -7.4219,0 -13.2357,4.08202 -5.8138,3.95833 -9.1536,11.62759 -3.2161,7.66926 -3.2161,18.67836 0,11.0091 3.2161,18.67836 3.3398,7.66926 9.1536,11.75129 5.8138,3.95833 13.2357,3.95833 z m 129.5116,-153.38521 v 184.30965 h -42.5521 V 350.47247 Z m 81.3931,187.52579 q -18.0599,0 -32.0377,-5.4427 -13.9779,-5.44271 -22.2656,-15.58592 -8.2878,-10.14322 -9.5247,-23.99736 h 41.9335 q 0.9896,7.17446 6.4323,11.50389 5.5664,4.20572 14.8437,4.20572 8.7825,0 13.7305,-3.09244 4.9479,-3.09245 4.9479,-8.04036 0,-4.32942 -4.0821,-6.92707 -3.9583,-2.72135 -11.7512,-4.08203 l -23.6263,-4.20572 q -19.2969,-3.46354 -29.4401,-13.23566 -10.0195,-9.77212 -10.0195,-25.23434 0,-12.86457 6.9271,-22.38929 7.0507,-9.52473 20.1627,-14.72004 13.2357,-5.319 31.4192,-5.319 18.3073,0 31.6667,5.5664 13.3593,5.4427 20.7812,15.58592 7.5455,10.01951 7.9166,23.99736 h -39.2121 q -0.1237,-6.92707 -5.6901,-11.38019 -5.4427,-4.57682 -13.9779,-4.57682 -8.2877,0 -12.9883,3.21614 -4.5768,3.21614 -4.5768,8.04035 0,4.08203 3.711,6.80338 3.7109,2.72135 10.3906,3.95833 l 26.2239,4.82421 q 20.2864,3.71093 29.8112,12.36978 9.6484,8.65884 9.6484,23.25517 0,13.35936 -7.793,23.50258 -7.6692,10.14321 -21.5234,15.83331 -13.7304,5.5664 -32.0377,5.5664 z"
       id="text1"
       style="font-size:253.333px;line-height:1;font-family:Inter;-inkscape-font-specification:'Inter, @opsz=32,wght=800';font-variation-settings:'opsz' 32, 'wght' 800;letter-spacing:0px;word-spacing:10px;text-orientation:upright;white-space:pre;stroke-width:0;stroke-linecap:round;stroke-linejoin:round;paint-order:markers stroke fill;fill:#ffffff;fill-opacity:1"
       transform="matrix(0.3357961,0,0,0.3357961,-98.680439,20.165565)"
       aria-label="Studio&#10;Controls" /></g></svg>
